<svg id="svg2" xmlns="http://www.w3.org/2000/svg" viewBox="0 0 267.55 308.94"><defs><style>.cls-1,.cls-2{fill:#fff;}.cls-2{stroke:#231f20;stroke-miterlimit:13.33;stroke-width:1.33px;}</style></defs><g id="g8"><g id="g10"><path id="path12" class="cls-1" d="M425.67,314.1V428H323.28V314.1l10.24-5.91h0l5.3-3.06,4.93-2.86V407.51h20.48v-117l10.24-5.92,10.24,5.92V407.51H405.2V302.27l4.93,2.86,5.3,3.05Z" transform="translate(-240.71 -283.77)"/></g><g id="g14"><path id="path16" class="cls-2" d="M425.67,314.1V428H323.28V314.1l10.24-5.91h0l5.3-3.06,4.93-2.86V407.51h20.48v-117l10.24-5.92,10.24,5.92V407.51H405.2V302.27l4.93,2.86,5.3,3.05Z" transform="translate(-240.71 -283.77)"/></g><g id="g18"><path id="path20" class="cls-1" d="M405.2,550.86h-.52L395,556.47l-20.48,11.82-10.24-5.91L354,556.46l-9.72-5.6h-.52V469H405.2ZM323.28,448.47V562.38l10.24,5.91,5.28,3.05,5,2.87L364.24,586l10.24,5.92L384.72,586l20.48-11.81,5-2.87,5.28-3.05,10.23-5.91V448.47Z" transform="translate(-240.71 -283.77)"/></g><g id="g22"><path id="path24" class="cls-2" d="M405.2,550.86h-.52L395,556.47l-20.48,11.82-10.24-5.91L354,556.46l-9.72-5.6h-.52V469H405.2ZM323.28,448.47V562.38l10.24,5.91,5.28,3.05,5,2.87L364.24,586l10.24,5.92L384.72,586l20.48-11.81,5-2.87,5.28-3.05,10.23-5.91V448.47Z" transform="translate(-240.71 -283.77)"/></g><g id="g26"><path id="path28" class="cls-1" d="M302.8,325.93v81.58H282.32V361.39l-9,5.18-1.27.73-10.24,5.91V428H302.8V550.55l-10.24-5.9-10.24-5.92-10.24-5.91-4.23-2.44-6-3.47L251.6,521l-10.23-5.9V469h20.48v34.32l10.23,5.9,1.28.74,9,5.18V448.47H241.37V361.39l10.24-5.92,10.24-5.9,6-3.48,4.21-2.43,10.23-5.91,10.25-5.92Z" transform="translate(-240.71 -283.77)"/></g><g id="g30"><path id="path32" class="cls-2" d="M302.8,325.93v81.58H282.32V361.39l-9,5.18-1.27.73-10.24,5.91V428H302.8V550.55l-10.24-5.9-10.24-5.92-10.24-5.91-4.23-2.44-6-3.47L251.6,521l-10.23-5.9V469h20.48v34.32l10.23,5.9,1.28.74,9,5.18V448.47H241.37V361.39l10.24-5.92,10.24-5.9,6-3.48,4.21-2.43,10.23-5.91,10.25-5.92Z" transform="translate(-240.71 -283.77)"/></g><g id="g34"><path id="path36" class="cls-1" d="M507.59,361.39v153.7L497.36,521h0l-10.24,5.92V373.21l-10.24-5.91-1.27-.73-9-5.18V538.74l-10.23,5.91-10.25,5.92V325.91l10.24,5.92,10.24,5.91,10.22,5.91h0l4.21,2.44,6,3.48,10.24,5.9Z" transform="translate(-240.71 -283.77)"/></g><g id="g38"><path id="path40" class="cls-2" d="M507.59,361.39v153.7L497.36,521h0l-10.24,5.92V373.21l-10.24-5.91-1.27-.73-9-5.18V538.74l-10.23,5.91-10.25,5.92V325.91l10.24,5.92,10.24,5.91,10.22,5.91h0l4.21,2.44,6,3.48,10.24,5.9Z" transform="translate(-240.71 -283.77)"/></g></g></svg>